<mxfile host="app.diagrams.net" agent="Mozilla/5.0 (Windows NT 10.0; Win64; x64; rv:138.0) Gecko/20100101 Firefox/138.0" version="27.0.3">
  <diagram name="Page-1" id="1dbGXaamN4F6xeXxS3h5">
    <mxGraphModel dx="556" dy="336" grid="1" gridSize="10" guides="1" tooltips="1" connect="1" arrows="1" fold="1" page="1" pageScale="1" pageWidth="1169" pageHeight="1654" math="0" shadow="0">
      <root>
        <mxCell id="0" />
        <mxCell id="1" parent="0" />
        <mxCell id="WRDxdlmeiS9B5pCvXVZm-1" value="" style="ellipse;whiteSpace=wrap;html=1;aspect=fixed;fillColor=default;strokeColor=#000000;" parent="1" vertex="1">
          <mxGeometry x="485.62714285714287" y="251.86311787072242" width="182.50857142857143" height="182.50857142857143" as="geometry" />
        </mxCell>
        <mxCell id="WRDxdlmeiS9B5pCvXVZm-2" value="" style="endArrow=classic;html=1;rounded=0;" parent="1" edge="1">
          <mxGeometry width="50" height="50" relative="1" as="geometry">
            <mxPoint x="440" y="343.11787072243345" as="sourcePoint" />
            <mxPoint x="713.7628571428571" y="343.11787072243345" as="targetPoint" />
          </mxGeometry>
        </mxCell>
        <mxCell id="WRDxdlmeiS9B5pCvXVZm-3" value="" style="endArrow=classic;html=1;rounded=0;" parent="1" edge="1">
          <mxGeometry width="50" height="50" relative="1" as="geometry">
            <mxPoint x="576.8814285714286" y="480" as="sourcePoint" />
            <mxPoint x="576.8814285714286" y="206.23574144486693" as="targetPoint" />
          </mxGeometry>
        </mxCell>
        <mxCell id="WRDxdlmeiS9B5pCvXVZm-4" value="I" style="text;html=1;align=center;verticalAlign=middle;whiteSpace=wrap;rounded=0;fontFamily=modern;fontSource=https%3A%2F%2Fsourceforge.net%2Fprojects%2Fcm-unicode%2F;" parent="1" vertex="1">
          <mxGeometry x="690.9492857142857" y="326.00760456273764" width="68.44071428571428" height="34.22053231939164" as="geometry" />
        </mxCell>
        <mxCell id="WRDxdlmeiS9B5pCvXVZm-5" value="Q" style="text;html=1;align=center;verticalAlign=middle;whiteSpace=wrap;rounded=0;fontFamily=modern;fontSource=https%3A%2F%2Fsourceforge.net%2Fprojects%2Fcm-unicode%2F;" parent="1" vertex="1">
          <mxGeometry x="542.6610714285714" y="180" width="68.44071428571428" height="34.22053231939164" as="geometry" />
        </mxCell>
        <mxCell id="WRDxdlmeiS9B5pCvXVZm-6" value="" style="endArrow=classic;html=1;rounded=0;entryX=1;entryY=0;entryDx=0;entryDy=0;strokeColor=#000000;" parent="1" target="WRDxdlmeiS9B5pCvXVZm-1" edge="1">
          <mxGeometry width="50" height="50" relative="1" as="geometry">
            <mxPoint x="576.8814285714286" y="343.11787072243345" as="sourcePoint" />
            <mxPoint x="633.9153571428571" y="286.0836501901141" as="targetPoint" />
          </mxGeometry>
        </mxCell>
        <mxCell id="WRDxdlmeiS9B5pCvXVZm-7" value="" style="verticalLabelPosition=bottom;verticalAlign=top;html=1;shape=mxgraph.basic.arc;startAngle=0.12744834443495037;endAngle=0.25;" parent="1" vertex="1">
          <mxGeometry x="554.0678571428572" y="320.3041825095057" width="45.62714285714286" height="45.627376425855516" as="geometry" />
        </mxCell>
        <mxCell id="WRDxdlmeiS9B5pCvXVZm-8" value="&lt;font face=&quot;Modern&quot; data-font-src=&quot;https://sourceforge.net/projects/cm-unicode/&quot;&gt;Phase&lt;/font&gt;&lt;font data-font-src=&quot;https://sourceforge.net/projects/cm-unicode/&quot; face=&quot;Modern&quot;&gt; difference&lt;/font&gt;" style="text;html=1;align=center;verticalAlign=middle;whiteSpace=wrap;rounded=0;" parent="1" vertex="1">
          <mxGeometry x="599.69" y="334.56" width="60.31" height="17.11" as="geometry" />
        </mxCell>
        <mxCell id="WRDxdlmeiS9B5pCvXVZm-10" value="&lt;font data-font-src=&quot;https://sourceforge.net/projects/cm-unicode/&quot; face=&quot;modern&quot;&gt;Amplitude&lt;/font&gt;" style="text;html=1;align=center;verticalAlign=middle;whiteSpace=wrap;rounded=0;rotation=-45;" parent="1" vertex="1">
          <mxGeometry x="569.7" y="288.89" width="60" height="30" as="geometry" />
        </mxCell>
        <mxCell id="Q35og2Z3aMNher6xZfo0-1" value="" style="endArrow=classic;html=1;rounded=0;entryX=1;entryY=0;entryDx=0;entryDy=0;strokeColor=#666666;dashed=1;" edge="1" parent="1">
          <mxGeometry width="50" height="50" relative="1" as="geometry">
            <mxPoint x="577.0014285714286" y="343.00000000000006" as="sourcePoint" />
            <mxPoint x="641.12" y="407.1178707224335" as="targetPoint" />
          </mxGeometry>
        </mxCell>
        <mxCell id="Q35og2Z3aMNher6xZfo0-6" value="" style="verticalLabelPosition=bottom;verticalAlign=top;html=1;shape=mxgraph.basic.arc;startAngle=0.1375688013134283;endAngle=0.25;rotation=40;strokeColor=#000000;" vertex="1" parent="1">
          <mxGeometry x="549.69" y="318.89" width="50" height="50" as="geometry" />
        </mxCell>
        <mxCell id="Q35og2Z3aMNher6xZfo0-7" value="&lt;font data-font-src=&quot;https://sourceforge.net/projects/cm-unicode/&quot; face=&quot;Modern&quot;&gt;New IQ Signal&lt;/font&gt;" style="text;html=1;align=center;verticalAlign=middle;whiteSpace=wrap;rounded=0;" vertex="1" parent="1">
          <mxGeometry x="640" y="410" width="50" height="30" as="geometry" />
        </mxCell>
      </root>
    </mxGraphModel>
  </diagram>
</mxfile>
